<?xml version="1.0" encoding="utf-8"?>
<!-- Generator:Adobe Illustrator 16.0.3, SVG Export Plug-In . SVG Version:6.00 Build 0)  -->
<!DOCTYPE svg PUBLIC "-//W3C//DTD SVG 1.1//EN" "http://www.w3.org/Graphics/SVG/1.1/DTD/svg11.dtd">
<svg version="1.1" id="Capa_1" xmlns="http://www.w3.org/2000/svg" xmlns:xlink="http://www.w3.org/1999/xlink" x="0px" y="0px"
	 width="371.489px" height="44.402px" viewBox="123.922 315.709 371.489 44.402"
	 enable-background="new 123.922 315.709 371.489 44.402" xml:space="preserve">
<g id="XMLID_2_">
	<path id="XMLID_3_" fill="#A8B1BB" d="M137.092,352.679c-4.045,0-7.243-1.317-9.596-3.951c-2.353-2.635-3.574-6.115-3.574-10.536
		c0-4.517,1.223-8.09,3.669-10.819c2.445-2.634,5.832-3.951,9.972-3.951c3.388,0,6.114,0.848,8.372,2.54
		c2.164,1.693,3.48,3.951,3.857,6.867h-5.833c-0.188-1.223-0.848-2.258-2.069-3.199c-1.223-0.939-2.54-1.411-4.045-1.411
		c-2.54,0-4.516,0.848-5.927,2.635s-2.164,4.139-2.164,7.244c0,3.104,0.659,5.55,2.07,7.148c1.409,1.599,3.386,2.446,6.021,2.446
		l0,0c2.258,0,3.951-0.847,5.268-2.54c0.658-0.94,1.224-2.069,1.506-3.386v-0.095h-6.49v-4.798h11.665v14.958h-3.857l-0.563-3.575
		l-0.376,0.472C143.113,351.457,140.479,352.679,137.092,352.679L137.092,352.679z"/>
	<path id="XMLID_5_" fill="#A8B1BB" d="M154.778,331.419h2.54h2.54v3.669c0.188-0.376,0.376-0.753,0.658-1.129
		c1.317-2.069,2.917-3.104,4.894-3.104h1.223v5.55c-0.471-0.094-1.035-0.094-1.6-0.094c-1.693,0-2.916,0.376-3.67,1.223
		c-0.847,0.847-1.223,2.069-1.223,3.763v10.63h-2.729h-2.729v-20.508H154.778z"/>
	<path id="XMLID_7_" fill="#A8B1BB" d="M175.285,344.307c0,1.223,0.281,2.164,0.847,2.821c0.563,0.564,1.411,0.941,2.446,0.941
		c1.41,0,2.444-0.47,3.292-1.317c0.753-0.847,1.129-2.069,1.129-3.669v-11.57h2.729h2.729v20.508h-2.54h-2.54v-3.104
		c-0.188,0.376-0.377,0.752-0.659,1.035c-1.316,1.693-3.292,2.54-5.832,2.54c-2.164,0-3.857-0.658-5.08-1.881
		c-1.223-1.317-1.787-3.01-1.787-5.269v-13.828h2.729h2.729v12.794L175.285,344.307L175.285,344.307z"/>
	<path id="XMLID_9_" fill="#A8B1BB" d="M193.348,331.419h2.54h2.54v3.011l0.376-0.471c1.505-2.069,3.387-3.104,5.738-3.104
		c2.634,0,4.704,0.94,6.303,2.916c1.6,1.882,2.353,4.422,2.353,7.62c0,3.292-0.753,6.021-2.353,8.09
		c-1.599,2.069-3.669,3.104-6.303,3.104c-2.353,0-4.327-0.94-5.738-2.821l-0.094-0.188v10.536h-2.729h-2.729v-28.692H193.348
		L193.348,331.419z M203.131,348.07c1.411,0,2.54-0.564,3.387-1.599c0.847-1.13,1.224-2.635,1.224-4.517
		c0-1.976-0.377-3.479-1.224-4.608c-0.847-1.13-1.976-1.693-3.387-1.693s-2.54,0.563-3.387,1.693
		c-0.848,1.129-1.224,2.728-1.224,4.797c0,1.882,0.376,3.387,1.224,4.421C200.591,347.505,201.72,348.07,203.131,348.07z"/>
	<path id="XMLID_12_" fill="#A8B1BB" d="M218.747,349.575c-1.883-1.882-2.822-4.516-2.822-7.808c0-3.388,0.939-6.021,2.822-7.997
		c1.882-1.976,4.422-2.916,7.62-2.916c3.197,0,5.832,0.94,7.714,2.916s2.821,4.609,2.821,7.997c0,3.292-0.939,5.833-2.821,7.808
		s-4.422,2.916-7.714,2.916C223.169,352.491,220.629,351.551,218.747,349.575z M230.036,346.376
		c0.847-1.035,1.223-2.634,1.223-4.608c0-2.07-0.376-3.669-1.223-4.704c-0.848-1.035-2.07-1.601-3.669-1.601
		c-1.601,0-2.822,0.564-3.67,1.601c-0.847,1.035-1.223,2.634-1.223,4.704c0,2.068,0.376,3.574,1.223,4.608
		c0.848,1.034,2.069,1.6,3.67,1.6C227.966,347.976,229.19,347.411,230.036,346.376z"/>
	<path id="XMLID_15_" fill="#002050" d="M275.379,342.237c-0.376,3.198-1.601,5.738-3.763,7.62
		c-2.164,1.881-4.893,2.822-8.278,2.822c-3.857,0-6.962-1.317-9.313-3.951c-2.258-2.635-3.479-6.115-3.479-10.536
		c0-4.517,1.129-8.09,3.479-10.819c2.259-2.634,5.362-3.951,9.313-3.951c3.292,0,6.021,0.848,8.185,2.635
		c2.163,1.787,3.48,4.232,3.856,7.243h-5.832c-0.188-1.505-0.847-2.728-1.977-3.574c-1.129-0.848-2.54-1.317-4.232-1.317
		c-2.164,0-3.857,0.847-5.08,2.54s-1.787,4.139-1.787,7.149c0,3.01,0.564,5.268,1.787,6.961c1.223,1.692,2.916,2.54,5.08,2.54
		c1.692,0,3.104-0.472,4.232-1.506c1.13-0.94,1.787-2.352,1.977-3.95h5.832V342.237z"/>
	<path id="XMLID_17_" fill="#002050" d="M282.153,348.822c-2.445-2.634-3.574-6.115-3.574-10.536c0-4.516,1.224-8.09,3.574-10.818
		c2.446-2.634,5.646-3.95,9.689-3.95c4.139,0,7.338,1.316,9.783,3.95c2.445,2.635,3.574,6.304,3.574,10.818
		c0,4.421-1.224,7.996-3.574,10.536c-2.352,2.54-5.646,3.951-9.783,3.951C287.797,352.679,284.504,351.457,282.153,348.822z
		 M297.392,345.248c1.317-1.692,1.976-4.045,1.976-7.055c0-3.104-0.657-5.457-1.976-7.244c-1.315-1.693-3.198-2.634-5.55-2.634
		s-4.233,0.847-5.551,2.634c-1.316,1.693-1.976,4.139-1.976,7.244c0,3.01,0.658,5.362,1.976,7.055
		c1.316,1.693,3.199,2.54,5.551,2.54S296.075,346.941,297.392,345.248z"/>
	<path id="XMLID_20_" fill="#002050" d="M309.81,351.927v-27.751h2.916h2.916v22.86h13.829v2.446v2.446H309.81V351.927z"/>
	<path id="XMLID_22_" fill="#002050" d="M335.866,348.822c-2.444-2.634-3.573-6.115-3.573-10.536c0-4.516,1.223-8.09,3.573-10.818
		c2.446-2.634,5.646-3.95,9.69-3.95c4.139,0,7.337,1.316,9.783,3.95c2.445,2.635,3.573,6.304,3.573,10.818
		c0,4.421-1.223,7.996-3.573,10.536c-2.352,2.54-5.646,3.951-9.783,3.951C341.418,352.679,338.22,351.457,335.866,348.822z
		 M351.108,345.248c1.317-1.692,1.977-4.045,1.977-7.055c0-3.104-0.658-5.457-1.977-7.244c-1.316-1.693-3.198-2.634-5.55-2.634
		c-2.354,0-4.233,0.847-5.551,2.634c-1.317,1.693-1.977,4.139-1.977,7.244c0,3.01,0.658,5.362,1.977,7.055
		c1.317,1.693,3.197,2.54,5.551,2.54C347.908,347.788,349.789,346.941,351.108,345.248z M343.204,321.353l3.669-5.645h5.928
		l-5.646,5.645H343.204z"/>
	<path id="XMLID_26_" fill="#002050" d="M368.698,351.927h-2.729h-2.729v-27.751h3.011h3.011l11.101,19.474v-19.474h2.729h2.729
		v27.751h-2.916h-2.916l-11.478-20.037v20.037H368.698z"/>
	<path id="XMLID_28_" fill="#002050" d="M389.49,338.568h10.818v5.08H389.49V338.568z"/>
	<path id="XMLID_30_" fill="#002050" d="M403.883,324.175h2.916h2.916v27.751h-2.916h-2.916V324.175z"/>
	<path id="XMLID_32_" fill="#002050" d="M415.076,351.927v-27.751h20.414v2.446v2.446h-14.582v5.927h13.547v2.353v2.352h-13.547
		v7.244h15.24v2.446v2.445h-21.072V351.927z"/>
	<path id="XMLID_34_" fill="#002050" d="M464.278,342.237c-0.376,3.198-1.6,5.738-3.763,7.62c-2.164,1.881-4.894,2.822-8.278,2.822
		c-3.856,0-6.962-1.317-9.313-3.951c-2.258-2.635-3.48-6.115-3.48-10.536c0-4.517,1.129-8.09,3.48-10.819
		c2.258-2.634,5.361-3.951,9.313-3.951c3.292,0,6.021,0.848,8.185,2.635c2.164,1.787,3.48,4.232,3.856,7.243h-5.833
		c-0.188-1.505-0.847-2.728-1.976-3.574c-1.129-0.848-2.539-1.317-4.232-1.317c-2.164,0-3.856,0.847-5.08,2.54
		s-1.788,4.139-1.788,7.149c0,3.01,0.564,5.268,1.788,6.961c1.224,1.692,2.916,2.54,5.08,2.54c1.693,0,3.104-0.472,4.232-1.506
		c1.129-0.94,1.788-2.352,1.976-3.95h5.833V342.237L464.278,342.237z"/>
	<path id="XMLID_36_" fill="#002050" d="M473.872,351.927h-2.729h-2.729v-27.751h4.233h4.233l5.08,22.014l0,0l4.985-22.014h4.232
		h4.232v27.751h-2.728h-2.729v-23.329l0,0l-5.174,23.329h-2.822h-2.821l-5.174-23.8l0,0v23.8H473.872z"/>
</g>
</svg>
