
<svg width="600px" height="96px" viewBox="0 0 600 96" version="1.1" xmlns="http://www.w3.org/2000/svg" xmlns:xlink="http://www.w3.org/1999/xlink">
    <defs>
        <polygon id="path-1" points="0.0001 0.909 62.8621 0.909 62.8621 96 0.0001 96"></polygon>
        <polygon id="path-3" points="0.5231 0.909 74.5731 0.909 74.5731 96 0.5231 96"></polygon>
        <polygon id="path-5" points="0 96.0914 599.71 96.0914 599.71 1.0004 0 1.0004"></polygon>
    </defs>
    <g id="Page-1" stroke="none" stroke-width="1" fill="none" fill-rule="evenodd">
        <g id="logo" transform="translate(0.000000, -1.000000)">
            <g id="Group-3" transform="translate(0.000000, 0.091400)">
                <mask id="mask-2" fill="white">
                    <use xlink:href="#path-1"></use>
                </mask>
                <g id="Clip-2"></g>
                <path d="M27.7031,81.8843 C31.0761,81.8843 33.7831,81.3073 35.8251,80.1503 C37.8671,78.9963 39.4881,77.0893 40.6871,74.4233 C41.8861,71.7613 42.6861,68.2533 43.0841,63.9013 C43.4831,59.5533 43.6831,54.1383 43.6831,47.6563 C43.6831,42.2413 43.5051,37.4903 43.1521,33.4063 C42.7941,29.3223 42.0631,25.9233 40.9531,23.2183 C39.8421,20.5093 38.2011,18.4673 36.0271,17.0883 C33.8481,15.7143 30.9411,15.0243 27.3021,15.0243 L19.1771,15.0243 L19.1771,81.8843 L27.7031,81.8843 Z M31.4311,0.9083 C38.0901,0.9083 43.4621,1.9963 47.5461,4.1733 C51.6291,6.3493 54.8051,9.4533 57.0681,13.4943 C59.3331,17.5343 60.8641,22.3943 61.6631,28.0783 C62.4611,33.7613 62.8621,40.1093 62.8621,47.1233 C62.8621,55.4693 62.3511,62.7263 61.3301,68.8953 C60.3091,75.0693 58.5551,80.1503 56.0691,84.1473 C53.5821,88.1443 50.2531,91.1183 46.0801,93.0693 C41.9081,95.0253 36.6251,96.0003 30.2321,96.0003 L0.0001,96.0003 L0.0001,0.9083 L31.4311,0.9083 Z" id="Fill-1" fill="#1D1D1B" mask="url(#mask-2)"></path>
            </g>
            <g id="Group-6" transform="translate(67.000000, 0.091400)">
                <mask id="mask-4" fill="white">
                    <use xlink:href="#path-3"></use>
                </mask>
                <g id="Clip-5"></g>
                <path d="M46.8701,60.1723 L37.6811,17.4223 L37.4141,17.4223 L28.2251,60.1723 L46.8701,60.1723 Z M49.3991,0.9083 L74.5731,96.0003 L54.5961,96.0003 L50.2001,75.8883 L24.8961,75.8883 L20.5001,96.0003 L0.5231,96.0003 L25.6941,0.9083 L49.3991,0.9083 Z" id="Fill-4" fill="#1D1D1B" mask="url(#mask-4)"></path>
            </g>
            <polygon id="Fill-7" fill="#1D1D1B" points="171.9394 71.3194 172.3384 71.3194 186.4544 1.0004 206.2994 1.0004 184.4584 96.0914 159.8174 96.0914 137.9764 1.0004 158.4874 1.0004"></polygon>
            <mask id="mask-6" fill="white">
                <use xlink:href="#path-5"></use>
            </mask>
            <g id="Clip-10"></g>
            <polygon id="Fill-9" fill="#1D1D1B" mask="url(#mask-6)" points="212.958 96.0924 232.135 96.0924 232.135 1.0004 212.958 1.0004"></polygon>
            <path d="M273.6879,81.9757 C277.0609,81.9757 279.7679,81.3987 281.8099,80.2417 C283.8519,79.0877 285.4739,77.1807 286.6719,74.5147 C287.8709,71.8527 288.6709,68.3447 289.0699,63.9927 C289.4689,59.6447 289.6679,54.2297 289.6679,47.7477 C289.6679,42.3327 289.4899,37.5817 289.1369,33.4977 C288.7789,29.4137 288.0489,26.0147 286.9389,23.3097 C285.8269,20.6007 284.1859,18.5587 282.0119,17.1797 C279.8339,15.8057 276.9259,15.1157 273.2869,15.1157 L265.1629,15.1157 L265.1629,81.9757 L273.6879,81.9757 Z M277.4169,0.9997 C284.0759,0.9997 289.4469,2.0877 293.5309,4.2647 C297.6149,6.4407 300.7899,9.5447 303.0539,13.5857 C305.3179,17.6257 306.8489,22.4857 307.6479,28.1697 C308.4459,33.8527 308.8479,40.2007 308.8479,47.2147 C308.8479,55.5607 308.3359,62.8177 307.3149,68.9867 C306.2939,75.1607 304.5399,80.2417 302.0539,84.2387 C299.5679,88.2357 296.2379,91.2097 292.0649,93.1607 C287.8929,95.1167 282.6099,96.0917 276.2179,96.0917 L245.9849,96.0917 L245.9849,0.9997 L277.4169,0.9997 Z" id="Fill-11" fill="#1D1D1B" mask="url(#mask-6)"></path>
            <polygon id="Fill-12" fill="#1D1D1B" mask="url(#mask-6)" points="373.3076 16.7154 339.3446 16.7154 339.3446 39.0904 371.3086 39.0904 371.3086 54.8054 339.3446 54.8054 339.3446 80.3764 374.6386 80.3764 374.6386 96.0914 320.1666 96.0914 320.1666 1.0004 373.3076 1.0004"></polygon>
            <polygon id="Fill-13" fill="#1D1D1B" mask="url(#mask-6)" points="382.8954 1.0001 402.0724 1.0001 402.0724 80.3761 436.0334 80.3761 436.0334 96.0921 382.8954 96.0921"></polygon>
            <polygon id="Fill-14" fill="#1D1D1B" mask="url(#mask-6)" points="496.3642 1.0001 496.3642 16.7151 462.4052 16.7151 462.4052 39.0901 494.3652 39.0901 494.3652 54.8061 462.4052 54.8061 462.4052 96.0921 443.2252 96.0921 443.2252 1.0001"></polygon>
            <polygon id="Fill-15" fill="#1D1D1B" mask="url(#mask-6)" points="504.484 96.0924 523.664 96.0924 523.664 1.0004 504.484 1.0004"></polygon>
            <polygon id="Fill-16" fill="#1D1D1B" mask="url(#mask-6)" points="581.8652 66.1251 582.1302 66.1251 582.1302 1.0001 599.7102 1.0001 599.7102 96.0921 577.8682 96.0921 554.4282 29.5001 554.1632 29.5001 554.1632 96.0921 536.5832 96.0921 536.5832 1.0001 558.6932 1.0001"></polygon>
        </g>
    </g>
</svg>