<?xml version="1.0" encoding="utf-8"?>
<!-- Generator: Adobe Illustrator 21.1.0, SVG Export Plug-In . SVG Version: 6.00 Build 0)  -->
<svg version="1.1" id="Capa_4" xmlns="http://www.w3.org/2000/svg" xmlns:xlink="http://www.w3.org/1999/xlink" x="0px" y="0px"
	 viewBox="0 0 1984.2 1417.3" style="enable-background:new 0 0 1984.2 1417.3;" xml:space="preserve">
<style type="text/css">
	.st0{opacity:0.27;fill:#F9F9F9;}
	.st1{fill:#770505;}
	.st2{fill:#820000;}
	.st3{font-family:'MyriadPro-Regular';}
	.st4{font-size:45.7705px;}
</style>
<ellipse class="st0" cx="866.9" cy="521.2" rx="193.8" ry="110.6"/>
<path class="st1" d="M797.1,480.7c0,0,0.8,5,5.2,2.3c4.3-2.7,2.9-4.1,2.9-4.1s-2-2.7-3.9-1.7C799.4,478.3,797.1,480.7,797.1,480.7z"
	/>
<path class="st1" d="M848.4,487.8c-5.4-2.7-36.1,8.9-22.1,5.4c14-3.6-3.6,12.5-4.8,15.8s-3.3,3.6-14,9.5c-10.7,6,10.1-20,10.1-22.1
	s-3.6-3.9-5.4-2.4c-1.8,1.5-25.3,28-26.8,24.7s13.1-21.8,13.1-21.8s-2.4-3.3-4.8-2.7c-2.4,0.6-24.4,31.9-26.2,26.5
	s14.6-22.6,14.6-22.6l-2.2-2.6c0,0,5-3.6,5.4-4.2c0.4-0.6-1.8-2.6-1.8-2.6s-5-3.4-22.3,5.8c-17.3,9.1-23.8,30-23.8,30s4.6-1-8.9,2.8
	c-13.5,3.8-19.3-3-19.3-3s46.9-70.2,48.5-72.5c1.6-2.4-2.6-4.8-2.6-4.8s-16.3-1.5-42.2,31c-25.9,32.5-10.6,48.1-10.6,48.1
	l-34.7,52.2l1,0.7l6.5-3l31.1-46.5c12.6,10.7,32-3.7,34.5-0.4c2.5,3.3,21.3-14.1,23.6-16.1c2.3-2-3.9,6-3.9,10.7
	c0,4.8,7.4,1.9,11.2,0.6c3.7-1.2,10.2-16.3,6.8-7.6c-3.4,8.7-1,8.7,0.4,8.9c1.4,0.2,7.4-0.8,10.3-2.9c2.9-2.1,19.4-21.9,12-11.6
	c-7.4,10.3-0.8,13,0,13.2c0.8,0.2,11.4-4.1,17.6-7.6c0,0-2.6,4.4,1.6,8.2c3,2.7,9.2-2.1,12.5-2.7c3.3-0.6,8.3-7.5,11.6-9.2
	c3.3-1.7,6.6-9.6,11-14.9C860,493,853.8,490.5,848.4,487.8z M706.5,520c0,0-12.6-17.2,14.7-45.3c27.3-28.1,29.6-21.9,29.6-21.9
	S710.3,520.8,706.5,520z M755.7,515.9c-2.5,1.2-9.9,5.6-9.9,5.6s9.1-21.1,19.2-24.6c10.1-3.5,14.1-4.1,14.5-4.1s5-4.8-1.9,2.3
	C770.8,502,758.2,514.6,755.7,515.9z M847,498.3c-2.3,5.1-10.5,20.5-20.4,22.5c-9.9,2,11.7-24.1,12.8-23.2c1.1,0.9,0.2-3.7,0.2-3.7
	S849.3,493.2,847,498.3z"/>
<polygon class="st2" points="1004.3,475.5 1007.1,475.5 1013.9,470.5 1013.9,468 1011.1,468 1005.5,471.8 "/>
<g>
	<path class="st2" d="M1052.5,506c0,0-29.3,16.8-33.3,17.7c-4,0.9,18.4-31.4,20.2-30.8s-3.1-3.7-3.1-3.7s-32.7,28.3-32.7,29.9
		s-7.2,4.4,4-15.2c3.8-6.7,8.5-10.9,7.4-12.4c-0.1-0.1-0.4-0.5-1.5-0.4c-8.7,0.6-29.3,26.5-29.3,26.5s3.4-13.1,13.1-22.1
		c9.6-9-9,1.6-9,1.6s-13.2,11.8-17.9,17.1c2-4.2,6.3-12.6,15.8-19.3c4.2-3,6.6-4.6,7.9-5.4l-1.7-1.5c0,0-25.8,17.7-24.3,19.6
		s-19,15.6-19,15.6c5.4-9.7,11-19.3,16.8-28.9c0.3-0.5,0.6-1,0.9-1.6l-2.8-2.5c0,0-28.9,21.8-39.5,32.7c-10.6,10.9,0.3-5.6,0.3-5.6
		s30.5-19.3,25.2-24.9s-7.5-2.2-7.5-2.2s-29.6,26.8-26.5,34.2c0,0-13.4,10-13.4,7.5c0-2.5,5.3-26.8,22.1-44.8l-3.4-3.2
		c0,0-16.5,6.5-29.9,20.9l26.5-43.6h73.1l4.7-1.5l-2.8-2.5h-71.9l13.7-25.2l0.9-5l-1.6-2.2l-3.7,2.5c0,0,2.5,0.3-0.6,5.3
		c-3.1,5-14.3,24-14.3,24h-11.8l11.8-19.6l-2.8-3.1l-3.1,3.1l-12.1,20.5c0,0-87.5,0.9-82.6-3.2l-3.3,1.7c0,0-0.3,8.4,30.2,8.1
		c30.5-0.3,52.9-1.2,52.9-1.2l-37.7,60.8c0,0-0.4,2.1,1.7,2.5c2.1,0.4,3.5-4.2,5.6-2.5s36.8-62.5,36.8-62.5h11.2
		c0,0-37.6,59.7-36.1,63.5c1.4,3.9,2.5,1.4,2.5,1.4l6-3.5c0,0,24.2-35.1,32.3-34.4c8.1,0.7-14.4,19.3-19,34.4
		c-4.6,15.1,1.4,15.8,1.4,15.8s16.8-6.3,16.5-10.2c-0.4-3.9,0.3,2.8,2.8,1.8c2.5-1.1,16.5-6.3,26-20s6-5.6,6-5.6
		s-11.9,22.8-8.4,24.2c3.5,1.4,16.8-8.1,16.8-8.1s-1.1,11.9,7.7,3.2c6.3-6.3,9.2-7.9,10.7-9.6c-1.2,3.4-2.6,8.6-0.4,10.1
		c3.7,2.5,18.4-10.8,18.4-10.8s-4.4,11.7,0,13c3.4,1,14.7-5.8,19.8-10.9c-2.8,5.3-6.1,13.9-1.8,13.7c6.8-0.3,24.6-11.2,38.6-19.9
		c14-8.7,43.3-8.1,43.3-8.1S1063.5,496.4,1052.5,506z M942.7,495.7c2.5-0.3-6.9,12.3-9,11.8c-2.1-0.4-4.7,2.8-4.7,2.8
		S940.2,496,942.7,495.7z"/>
	<path class="st2" d="M994.2,489.4c0.2,0.1,0.3,0.3,0.5,0.4"/>
	<path class="st2" d="M815,454.2l1-0.5C815.5,453.9,815.2,454.1,815,454.2z"/>
</g>
<text transform="matrix(1.1084 0 0 1 792.8094 592.8566)" class="st3 st4">Ilustrador</text>
</svg>
